<svg xmlns="http://www.w3.org/2000/svg" version="1.1" xmlns:xlink="http://www.w3.org/1999/xlink" xmlns:svgjs="http://svgjs.dev/svgjs" width="1000" height="1000" viewBox="0 0 1000 1000"><rect width="1000" height="1000" fill="#ffffff"></rect><g transform="matrix(0.7,0,0,0.7,149.57575885041024,416.74980313148467)"><svg viewBox="0 0 396 95" data-background-color="#111111" preserveAspectRatio="xMidYMid meet" height="239" width="1000" xmlns="http://www.w3.org/2000/svg" xmlns:xlink="http://www.w3.org/1999/xlink"><g id="tight-bounds" transform="matrix(1,0,0,1,0.23999927891077277,-0.2270250896057462)"><svg viewBox="0 0 395.52 95.45405017921148" height="95.45405017921148" width="395.52"><g><svg viewBox="0 0 395.52 95.45405017921148" height="95.45405017921148" width="395.52"><g><svg viewBox="0 0 395.52 95.45405017921148" height="95.45405017921148" width="395.52"><g><svg viewBox="0 0 395.52 95.45405017921148" height="95.45405017921148" width="395.52" id="textblock"><g><svg viewBox="0 0 395.52 95.45405017921148" height="95.45405017921148" width="395.52"><g transform="matrix(1,0,0,1,0,0)"><svg width="395.52" viewBox="4 -39.95000076293945 167.38999938964844 40.400001525878906" height="95.45405017921148" data-palette-color="#ffffff"><path d="M26.6 0.05L7.15 0.05Q5.3 0.05 4.65-0.9 4-1.85 4-3L4-3 4-37.55Q4-39.95 6.9-39.95L6.9-39.95Q9.9-39.95 9.9-37.55L9.9-37.55 9.9-5 26.6-5Q28.4-5 28.4-2.55L28.4-2.55Q28.5 0.05 26.6 0.05L26.6 0.05ZM57.15-1.2L46.15-34.8 35.2-1.2 35.2-1.25Q34.9-0.5 34.37-0.03 33.85 0.45 33.1 0.45L33.1 0.45Q32.7 0.45 32.32 0.38 31.95 0.3 31.55 0.2L31.55 0.2 31.6 0.2Q28.75-0.7 29.5-3L29.5-3 40.9-37.65Q41.15-38.45 41.77-39 42.4-39.55 43.25-39.65L43.25-39.65Q44.1-39.8 44.9-39.88 45.7-39.95 46.15-39.95L46.15-39.95Q46.6-39.95 47.4-39.88 48.2-39.8 49.05-39.7L49.05-39.7Q49.75-39.6 50.42-38.95 51.1-38.3 51.45-37.65L51.45-37.65Q54.25-29.05 57.12-20.33 60-11.6 62.8-3L62.8-3Q63.5-0.7 60.7 0.2L60.7 0.2Q60.3 0.3 59.97 0.38 59.65 0.45 59.25 0.45L59.25 0.45Q58.55 0.45 57.97-0.03 57.4-0.5 57.15-1.25L57.15-1.25 57.15-1.2ZM49.9-12L49.9-12Q49.9-10.4 48.77-9.28 47.65-8.15 46.05-8.15L46.05-8.15Q44.45-8.15 43.35-9.28 42.25-10.4 42.25-12L42.25-12Q42.25-13.6 43.35-14.73 44.45-15.85 46.05-15.85L46.05-15.85Q47.65-15.85 48.77-14.73 49.9-13.6 49.9-12ZM97.94-39.95L97.94-39.95Q99.55-39.95 101.44-39.2L101.44-39.2Q103.2-38.5 103.2-36.55L103.2-36.55 103.2-2.1Q103.2 0.3 100.25 0.3L100.25 0.3Q97.3 0.3 97.3-2.1L97.3-2.1 97.3-27.8 95.84-27.95 93.84-21.45 87.84-1.45Q87.3 0.3 85.15 0.25L85.15 0.25Q84.2 0.2 83.5-0.25 82.8-0.7 82.55-1.55L82.55-1.55 78.95-13.2Q77.84-16.65 76.75-20.23 75.65-23.8 74.34-28.15L74.34-28.15 72.9-27.95 72.9-2.1Q72.9 0.3 69.95 0.3L69.95 0.3Q67 0.3 67-2.1L67-2.1 67-36.55Q67-38.45 68.75-39.2L68.75-39.2Q70.59-39.95 72.3-39.9L72.3-39.9Q73.05-39.9 73.84-39.7 74.65-39.5 75.34-39.13 76.05-38.75 76.59-38.18 77.15-37.6 77.45-36.85L77.45-36.85 85.3-10.1Q86.15-13.05 87.09-16.5 88.05-19.95 89.05-23.5 90.05-27.05 91.02-30.53 92-34 92.84-37L92.84-37Q93.15-37.7 93.7-38.25 94.25-38.8 94.95-39.18 95.65-39.55 96.42-39.75 97.19-39.95 97.94-39.95ZM130.99-8.4L130.99-14.75Q130.99-15.9 130.14-16.98 129.29-18.05 127.14-18.2L127.14-18.2Q125.74-16.5 123.74-16.5L123.74-16.5Q122.04-16.5 120.84-17.7 119.64-18.9 119.64-20.65L119.64-20.65Q119.64-22.4 120.84-23.6 122.04-24.8 123.74-24.8L123.74-24.8Q124.64-24.8 125.52-24.3 126.39-23.8 127.09-23.1L127.09-23.1Q128.19-23.15 128.79-23.45 129.39-23.75 129.67-24.18 129.94-24.6 129.99-25.15 130.04-25.7 130.04-26.25L130.04-26.25 130.04-31.3Q130.04-32.55 129.27-33.6 128.49-34.65 126.64-34.65L126.64-34.65 116.19-34.65 116.14-1.65Q116.14-0.65 115.22-0.13 114.29 0.4 113.19 0.4L113.19 0.4Q110.24 0.4 110.24-2L110.24-2 110.24-36.7Q110.24-38.5 111.17-39.1 112.09-39.7 113.39-39.7L113.39-39.7 127.89-39.7Q129.19-39.7 130.67-39.2 132.14-38.7 133.44-37.85L133.44-37.85 133.39-37.85Q134.69-36.9 135.32-35.35 135.94-33.8 135.94-31.75L135.94-31.75 135.94-26.1Q135.94-24.1 135.09-22.83 134.24-21.55 133.29-20.8L133.29-20.8Q133.94-20.4 134.54-19.98 135.14-19.55 135.54-19.05L135.54-19.05Q136.19-18.35 136.57-17.4 136.94-16.45 136.94-15.15L136.94-15.15 136.94-8Q136.94-3.9 133.74-1.95L133.74-1.95Q132.14-0.95 130.72-0.45 129.29 0.05 127.89 0.05L127.89 0.05 120.49 0.05Q119.64 0.05 119.17-0.65 118.69-1.35 118.69-2.5L118.69-2.5Q118.69-5 120.79-5L120.79-5 127.64-5Q129.49-5 130.24-6.05 130.99-7.1 130.99-8.4L130.99-8.4ZM152.44-39.7L163.34-39.7Q164.64-39.7 166.04-39.15 167.44-38.6 168.74-37.75L168.74-37.75 168.69-37.75Q169.99-36.8 170.69-35.27 171.39-33.75 171.39-31.75L171.39-31.75 171.39-8Q171.39-3.95 168.69-1.95L168.69-1.95Q167.39-1 166.01-0.48 164.64 0.05 163.34 0.05L163.34 0.05 152.44 0.05Q151.14 0.05 149.76-0.48 148.39-1 147.09-1.95L147.09-1.95Q145.79-2.95 145.09-4.42 144.39-5.9 144.39-8L144.39-8 144.39-31.75Q144.39-33.75 145.09-35.27 145.79-36.8 147.09-37.75L147.09-37.75 147.04-37.75Q148.34-38.6 149.74-39.15 151.14-39.7 152.44-39.7L152.44-39.7ZM153.69-5L162.09-5Q163.94-5 164.69-6.05 165.44-7.1 165.44-8.4L165.44-8.4 165.44-31.3Q165.44-32.55 164.69-33.6 163.94-34.65 162.09-34.65L162.09-34.65 153.69-34.65Q151.84-34.65 151.09-33.6 150.34-32.55 150.34-31.3L150.34-31.3 150.34-8.4Q150.34-7.1 151.09-6.05 151.84-5 153.69-5L153.69-5Z" opacity="1" transform="matrix(1,0,0,1,0,0)" fill="#000000" class="undefined-text-0" data-fill-palette-color="primary" id="text-0"></path></svg></g></svg></g></svg></g></svg></g></svg></g><defs></defs></svg><rect width="395.52" height="95.45405017921148" fill="none" stroke="none" visibility="hidden"></rect></g></svg></g></svg>